<svg width="50" height="30" viewBox="0 0 155 94" fill="none" xmlns="http://www.w3.org/2000/svg">
<g clip-path="url(#clip0_710_221)">
<path d="M0.0195312 0H154.981V94H0.0195312V0Z" fill="black"/>
<path d="M31.9474 28.7948C33.4388 28.1566 35.0295 27.8162 36.68 27.8162C43.9047 27.8162 49.9364 34.4023 51.3151 43.1581L61.5557 40.4778C59.2093 25.6039 48.9621 14.4059 36.68 14.4059C33.863 14.4059 31.1653 14.993 28.6333 16.0822L31.9474 28.7948Z" fill="#FFCB05"/>
<path d="M19.8644 71.3913L26.7909 61.342C23.7022 57.8278 21.7535 52.6968 21.7535 46.9787C21.7535 41.2691 23.7022 36.1381 26.7909 32.6323L19.8644 22.5746C14.6149 28.548 11.3008 37.2698 11.3008 46.9787C11.3008 56.6961 14.6149 65.4179 19.8644 71.3913" fill="#00A4E0"/>
<path d="M51.3151 50.8248C49.9298 59.5722 43.9047 66.1497 36.6866 66.1497C35.0295 66.1497 33.4321 65.8093 31.9474 65.1627L28.6333 77.8923C31.1653 78.9729 33.8696 79.5601 36.6866 79.5601C48.9554 79.5601 59.196 68.3791 61.5557 53.5222L51.3151 50.8248Z" fill="#EF4123"/>
<path d="M70.5103 61.7591C70.1723 61.0613 69.7216 59.9466 69.4432 59.1212C67.8193 54.2881 67.7464 49.2847 69.1118 44.4856C70.6164 39.2185 73.493 35.1937 77.2115 33.1345C81.8844 30.5562 87.0478 31.0582 91.5284 34.4704C94.3719 36.5636 96.3869 39.7971 97.918 44.375C98.1103 44.9621 98.2826 45.5833 98.4549 46.1193L70.5103 61.7591ZM79.8429 40.9033C76.5221 42.7327 74.8121 46.732 75.17 51.412L89.2218 43.6432C86.8025 40.0013 83.6607 38.793 79.8429 40.9033V40.9033ZM90.9717 57.8023C90.965 57.8023 90.965 57.8109 90.965 57.8109L90.6734 57.5556C89.8316 59.2999 88.5259 60.721 86.8754 61.6399C83.7337 63.3928 80.8239 62.9418 78.7293 60.5848L78.5371 60.9592C78.5371 60.9592 78.5371 60.9507 78.5305 60.9507L74.9645 67.8005C75.8527 68.5919 76.8005 69.2556 77.7948 69.7917C81.7319 71.8934 85.7619 71.7913 89.7322 69.5789C92.6022 67.9792 94.8558 65.5456 96.3936 62.4568L90.9717 57.8023ZM108.218 23.0597V61.1294L112.832 63.529L110.213 71.3743L105.123 68.6514C103.983 68.0133 103.201 67.0432 102.617 65.9455C102.054 64.8309 101.636 63.2907 101.636 61.2315V23.0597H108.218ZM120.162 51.4375C120.162 48.1956 121.283 45.2855 123.046 43.3113L118.313 36.5381C115.105 40.18 113.083 45.4982 113.083 51.4205C113.077 57.3514 115.098 62.6781 118.3 66.3199L123.026 59.5467C121.269 57.5641 120.162 54.671 120.162 51.4375V51.4375ZM128.567 62.2356C127.639 62.2356 126.738 62.0314 125.902 61.674L123.642 70.2937C125.187 70.9574 126.837 71.3233 128.56 71.3233C136.05 71.3318 142.301 64.5075 143.752 55.4453L136.806 53.6244C136.017 58.5511 132.63 62.2441 128.567 62.2356V62.2356ZM128.587 31.5518C126.87 31.5518 125.22 31.9092 123.675 32.5644L125.916 41.1926C126.757 40.8352 127.652 40.6395 128.58 40.6395C132.65 40.648 136.044 44.358 136.812 49.2932L143.759 47.4893C142.334 38.4101 136.083 31.5603 128.587 31.5518V31.5518Z" fill="white"/>
</g>
<defs>
<clipPath id="clip0_710_221">
<rect width="155" height="94" fill="white"/>
</clipPath>
</defs>
</svg>
